<svg width="52" height="52" viewBox="0 0 52 52" fill="none" xmlns="http://www.w3.org/2000/svg">
<path fill-rule="evenodd" clip-rule="evenodd" d="M0 26C0 11.6636 11.6636 0 26 0C40.3371 0 52 11.6636 52 26C52 40.3364 40.3371 52 26 52C11.6636 52 0 40.3364 0 26ZM21.1337 39.7361L38.4829 27.1361C38.8444 26.8729 39.0596 26.4501 39.0596 26C39.0596 25.5499 38.8444 25.1271 38.4822 24.8639L21.1331 12.2638C20.7104 11.9558 20.1525 11.9152 19.6896 12.1539C19.226 12.3933 18.9346 12.8749 18.9346 13.3999V38.6C18.9346 39.125 19.226 39.6066 19.6896 39.846C19.8895 39.9489 20.106 40 20.3225 40C20.6084 40 20.8929 39.9111 21.1337 39.7361Z" fill="white"/>
</svg>
