<svg width="22" height="20" viewBox="0 0 22 20" fill="none" xmlns="http://www.w3.org/2000/svg">
<path fill-rule="evenodd" clip-rule="evenodd" d="M10.9642 19.612L2.00485 10.3784C0.950806 9.28782 0.353516 7.83371 0.353516 6.27054C0.353516 4.70737 0.950806 3.25326 2.00485 2.16268C3.05889 1.0721 4.46428 0.454102 5.97508 0.454102C7.48587 0.454102 8.89126 1.0721 9.9453 2.16268L10.9291 3.18056L11.9129 2.16268C12.9669 1.0721 14.3723 0.454102 15.8831 0.454102C17.3939 0.454102 18.7993 1.0721 19.8533 2.16268C20.9073 3.25326 21.5046 4.70737 21.5046 6.27054C21.5046 7.83371 20.9776 9.28782 19.9236 10.3784L10.9642 19.612Z" fill="white"/>
</svg>
