<svg width="26" height="25" viewBox="0 0 26 25" fill="none" xmlns="http://www.w3.org/2000/svg">
<mask id="path-1-outside-1_602_2607" maskUnits="userSpaceOnUse" x="0" y="0" width="26" height="25" fill="black">
<rect fill="white" width="26" height="25"/>
<path fill-rule="evenodd" clip-rule="evenodd" d="M12.9639 21.612L4.00456 12.3784C2.95052 11.2878 2.35323 9.83372 2.35323 8.27055C2.35323 6.70739 2.95052 5.25328 4.00456 4.16269C5.0586 3.07211 6.46399 2.45412 7.97479 2.45412C9.48558 2.45412 10.891 3.07211 11.945 4.16269L12.9288 5.18057L13.9126 4.16269C14.9666 3.07211 16.372 2.45412 17.8828 2.45412C19.3936 2.45412 20.799 3.07211 21.853 4.16269C22.9071 5.25328 23.5043 6.70739 23.5043 8.27055C23.5043 9.83372 22.9773 11.2878 21.9233 12.3784L12.9639 21.612ZM12.9634 3.10846C11.5931 1.6907 9.80126 1 8.00938 1C6.21751 1 4.42564 1.6907 3.05538 3.10846C0.314872 5.94397 0.314872 10.5608 3.05538 13.3963L12.9634 23.6841L22.9065 13.3963C24.2768 11.9785 24.9443 10.1245 24.9443 8.27055C24.9443 6.41656 24.2768 4.56257 22.9065 3.14481C21.5363 1.6907 19.7444 1 17.9174 1C16.1255 1 14.2985 1.6907 12.9634 3.10846Z"/>
</mask>
<path fill-rule="evenodd" clip-rule="evenodd" d="M12.9639 21.612L4.00456 12.3784C2.95052 11.2878 2.35323 9.83372 2.35323 8.27055C2.35323 6.70739 2.95052 5.25328 4.00456 4.16269C5.0586 3.07211 6.46399 2.45412 7.97479 2.45412C9.48558 2.45412 10.891 3.07211 11.945 4.16269L12.9288 5.18057L13.9126 4.16269C14.9666 3.07211 16.372 2.45412 17.8828 2.45412C19.3936 2.45412 20.799 3.07211 21.853 4.16269C22.9071 5.25328 23.5043 6.70739 23.5043 8.27055C23.5043 9.83372 22.9773 11.2878 21.9233 12.3784L12.9639 21.612ZM12.9634 3.10846C11.5931 1.6907 9.80126 1 8.00938 1C6.21751 1 4.42564 1.6907 3.05538 3.10846C0.314872 5.94397 0.314872 10.5608 3.05538 13.3963L12.9634 23.6841L22.9065 13.3963C24.2768 11.9785 24.9443 10.1245 24.9443 8.27055C24.9443 6.41656 24.2768 4.56257 22.9065 3.14481C21.5363 1.6907 19.7444 1 17.9174 1C16.1255 1 14.2985 1.6907 12.9634 3.10846Z" fill="#007AFF"/>
<path d="M12.9639 21.612L12.6051 21.9602L12.9639 22.33L13.3228 21.9602L12.9639 21.612ZM4.00456 12.3784L3.64503 12.7259L3.64572 12.7266L4.00456 12.3784ZM4.00456 4.16269L3.64503 3.81521L4.00456 4.16269ZM11.945 4.16269L11.5855 4.51017L11.945 4.16269ZM12.9288 5.18057L12.5693 5.52805L12.9288 5.90004L13.2883 5.52805L12.9288 5.18057ZM13.9126 4.16269L14.2721 4.51017L14.2721 4.51017L13.9126 4.16269ZM21.853 4.16269L22.2125 3.81521L21.853 4.16269ZM21.9233 12.3784L22.2821 12.7266L22.2828 12.7259L21.9233 12.3784ZM12.9634 3.10846L12.6039 3.45594L12.9681 3.83279L13.3274 3.45124L12.9634 3.10846ZM3.05538 3.10846L2.69586 2.76098H2.69586L3.05538 3.10846ZM3.05538 13.3963L3.41552 13.0494L3.41491 13.0488L3.05538 13.3963ZM12.9634 23.6841L12.6032 24.031L12.9627 24.4042L13.3229 24.0316L12.9634 23.6841ZM22.9065 13.3963L23.266 13.7438L22.9065 13.3963ZM22.9065 3.14481L22.5426 3.48774L22.547 3.49229L22.9065 3.14481ZM13.3228 21.2638L4.3634 12.0302L3.64572 12.7266L12.6051 21.9602L13.3228 21.2638ZM4.36408 12.0309C3.40014 11.0336 2.85323 9.70405 2.85323 8.27055H1.85323C1.85323 9.96339 2.50089 11.5421 3.64503 12.7259L4.36408 12.0309ZM2.85323 8.27055C2.85323 6.83706 3.40014 5.50753 4.36408 4.51017L3.64503 3.81521C2.50089 4.99902 1.85323 6.57772 1.85323 8.27055H2.85323ZM4.36408 4.51017C5.32759 3.51326 6.60475 2.95412 7.97479 2.95412V1.95412C6.32323 1.95412 4.78961 2.63096 3.64503 3.81521L4.36408 4.51017ZM7.97479 2.95412C9.34482 2.95412 10.622 3.51326 11.5855 4.51017L12.3045 3.81521C11.16 2.63096 9.62634 1.95412 7.97479 1.95412V2.95412ZM11.5855 4.51017L12.5693 5.52805L13.2883 4.83309L12.3045 3.81521L11.5855 4.51017ZM13.2883 5.52805L14.2721 4.51017L13.553 3.81521L12.5693 4.83309L13.2883 5.52805ZM14.2721 4.51017C15.2356 3.51326 16.5128 2.95412 17.8828 2.95412V1.95412C16.2312 1.95412 14.6976 2.63096 13.553 3.81522L14.2721 4.51017ZM17.8828 2.95412C19.2528 2.95412 20.53 3.51326 21.4935 4.51017L22.2125 3.81521C21.068 2.63096 19.5343 1.95412 17.8828 1.95412V2.95412ZM21.4935 4.51017C22.4574 5.50753 23.0043 6.83706 23.0043 8.27055H24.0043C24.0043 6.57772 23.3567 4.99902 22.2125 3.81521L21.4935 4.51017ZM23.0043 8.27055C23.0043 9.72023 22.5171 11.0446 21.5638 12.0309L22.2828 12.7259C23.4376 11.5311 24.0043 9.94721 24.0043 8.27055H23.0043ZM21.5644 12.0302L12.6051 21.2638L13.3228 21.9602L22.2821 12.7266L21.5644 12.0302ZM13.3229 2.76098C11.8545 1.24167 9.93105 0.5 8.00938 0.5V1.5C9.67146 1.5 11.3318 2.13973 12.6039 3.45594L13.3229 2.76098ZM8.00938 0.5C6.08772 0.5 4.16426 1.24167 2.69586 2.76098L3.41491 3.45594C4.68702 2.13973 6.3473 1.5 8.00938 1.5V0.5ZM2.69586 2.76098C-0.231953 5.79029 -0.231953 10.7145 2.69586 13.7438L3.41491 13.0488C0.861697 10.4071 0.861697 6.09766 3.41491 3.45594L2.69586 2.76098ZM2.69524 13.7431L12.6032 24.031L13.3235 23.3373L3.41552 13.0494L2.69524 13.7431ZM13.3229 24.0316L23.266 13.7438L22.547 13.0488L12.6039 23.3366L13.3229 24.0316ZM23.266 13.7438C24.7335 12.2255 25.4443 10.2437 25.4443 8.27055H24.4443C24.4443 10.0054 23.8201 11.7316 22.547 13.0488L23.266 13.7438ZM25.4443 8.27055C25.4443 6.29744 24.7335 4.31564 23.266 2.79733L22.547 3.49229C23.8201 4.8095 24.4443 6.53567 24.4443 8.27055H25.4443ZM23.2704 2.80191C21.8 1.24155 19.8737 0.5 17.9174 0.5V1.5C19.6151 1.5 21.2725 2.13985 22.5426 3.48772L23.2704 2.80191ZM17.9174 0.5C15.9997 0.5 14.0369 1.23917 12.5994 2.76567L13.3274 3.45124C14.5601 2.14223 16.2513 1.5 17.9174 1.5V0.5Z" fill="#007AFF" mask="url(#path-1-outside-1_602_2607)"/>
</svg>
